<svg width="166" height="40" viewBox="0 0 166 40" fill="none" xmlns="http://www.w3.org/2000/svg">
<path fill-rule="evenodd" clip-rule="evenodd" d="M15.4562 31.8272L13.8005 16.0268L1.93137 13.4963L0.010498 31.8272H15.4562Z" fill="#596B77"/>
<mask id="ll_m0" style="mask-type:alpha" maskUnits="userSpaceOnUse" x="12" y="8" width="18" height="12">
<path fill-rule="evenodd" clip-rule="evenodd" d="M27.905 19.0337L29.0368 8.23242H12.9844L13.8011 16.0268L27.905 19.0337Z" fill="url(#ll_g0)"/>
</mask>
<g mask="url(#ll_m0)">
<path fill-rule="evenodd" clip-rule="evenodd" d="M27.905 19.0337L29.0368 8.23242H12.9844L13.8011 16.0268L27.905 19.0337Z" fill="#596B77"/>
</g>
<path fill-rule="evenodd" clip-rule="evenodd" d="M2.48218 8.23256H12.9829L12.3871 2.54639L2.86531 4.57639L2.48218 8.23256Z" fill="#F2F6F7"/>
<mask id="ll_m1" style="mask-type:alpha" maskUnits="userSpaceOnUse" x="24" y="7" width="143" height="32">
<path d="M97.9848 33.9836L24.8628 18.3944V7.41284H166.266V38.9914H97.9848V33.9836Z" fill="black"/>
<path d="M97.9848 33.9836L24.8628 18.3944V7.41284H166.266V38.9914H97.9848V33.9836Z" fill="url(#ll_g1)"/>
</mask>
<g mask="url(#ll_m1)">
<path fill-rule="evenodd" clip-rule="evenodd" d="M113.222 31.816V15.1107H116.619V31.816H113.222ZM113.059 11.8351V8.00269H116.815V11.8351H113.059ZM138.504 31.8162V8.23213H141.9V17.991C142.423 17.1272 143.12 16.4182 143.991 15.8642C145.123 15.1436 146.44 14.7833 147.942 14.7833C149.727 14.7833 151.132 15.2855 152.155 16.29C153.178 17.2945 153.69 18.6266 153.69 20.2862V31.8162H150.326V21.0723C150.326 19.915 150.032 19.0524 149.444 18.4846C148.878 17.9169 148.029 17.633 146.897 17.633C145.917 17.633 145.046 17.8514 144.284 18.2881C143.544 18.7248 142.956 19.3254 142.521 20.0897C142.107 20.854 141.9 21.7602 141.9 22.8084V31.8162H138.504ZM163.547 32.1434C161.609 32.1434 160.183 31.6958 159.268 30.8005C158.376 29.8833 157.929 28.5403 157.929 26.7715V17.8292H154.598V15.1105H157.929V10.4685L161.293 9.75095V15.1105H166.029V17.8292H161.293V26.8043C161.293 27.6777 161.522 28.3219 161.979 28.7368C162.436 29.1517 163.176 29.3592 164.2 29.3592C164.592 29.3592 164.94 29.3264 165.245 29.2609C165.55 29.1954 165.811 29.119 166.029 29.0316V31.7831C165.789 31.8923 165.452 31.9797 165.016 32.0452C164.581 32.1107 164.091 32.1434 163.547 32.1434ZM121.781 37.4173C123.152 38.3781 124.883 38.8585 126.973 38.8585C129.542 38.8585 131.556 38.1707 133.015 36.7949C134.496 35.4192 135.236 33.5303 135.236 31.1282V15.1107H132.003V18.2259C131.649 17.2856 131.072 16.5311 130.272 15.9623C129.249 15.1981 127.953 14.8159 126.386 14.8159C124.862 14.8159 123.523 15.1653 122.369 15.8641C121.237 16.5629 120.355 17.5565 119.723 18.8448C119.092 20.1332 118.776 21.6291 118.776 23.3324C118.776 25.0138 119.081 26.4878 119.691 27.7544C120.3 28.9991 121.16 29.9708 122.271 30.6696C123.381 31.3684 124.666 31.7178 126.124 31.7178C127.648 31.7178 128.955 31.3575 130.043 30.6369C130.876 30.0692 131.485 29.3482 131.872 28.4741V31.161C131.872 32.7551 131.469 33.9561 130.664 34.7641C129.858 35.572 128.639 35.976 127.006 35.976C125.743 35.976 124.731 35.7686 123.969 35.3537C123.229 34.9388 122.75 34.371 122.532 33.6504H119.332C119.615 35.2227 120.431 36.4783 121.781 37.4173ZM130.631 27.4268C129.76 28.4532 128.595 28.9663 127.137 28.9663C125.656 28.9663 124.47 28.4641 123.577 27.4596C122.706 26.4332 122.271 25.0466 122.271 23.2996C122.271 21.509 122.706 20.1114 123.577 19.1069C124.448 18.0806 125.624 17.5674 127.104 17.5674C128.585 17.5674 129.76 18.0696 130.631 19.0741C131.524 20.0786 131.97 21.4544 131.97 23.2013C131.97 24.992 131.524 26.4005 130.631 27.4268ZM96.2233 8.23213V31.8162H97.9215H99.685H111.507V28.9664H99.685V8.23213H96.2233ZM77.6916 31.816V15.1107H80.9247V18.2761C81.4625 17.2819 82.2136 16.4779 83.178 15.8641C84.3102 15.1434 85.6273 14.7831 87.1296 14.7831C88.9149 14.7831 90.3191 15.2854 91.3424 16.2899C92.3657 17.2944 92.8773 18.6264 92.8773 20.2861V31.816H89.5136V21.0722C89.5136 19.9148 89.2197 19.0523 88.6318 18.4845C88.0658 17.9167 87.2167 17.6329 86.0846 17.6329C85.1048 17.6329 84.234 17.8512 83.472 18.288C82.7317 18.7247 82.1439 19.3252 81.7085 20.0895C81.2948 20.8538 81.088 21.7601 81.088 22.8083V31.816H77.6916ZM71.4839 30.4403C71.5275 30.9426 71.6037 31.4011 71.7125 31.8161H74.619V28.606V20.7774C74.619 18.8121 74.0748 17.3271 72.9862 16.3226C71.8976 15.2963 70.2647 14.7831 68.0876 14.7831C65.9757 14.7831 64.2884 15.2526 63.0257 16.1916C61.7629 17.1306 61.0553 18.3862 60.9029 19.9585H64.136C64.2449 19.1505 64.6259 18.5282 65.279 18.0914C65.9539 17.6547 66.8466 17.4363 67.9569 17.4363C69.1108 17.4363 69.949 17.7093 70.4716 18.2552C71.0158 18.7793 71.288 19.5764 71.288 20.6464V21.4226L66.5526 22.1859C64.5714 22.4916 63.0474 23.0812 61.9806 23.9547C60.9356 24.8064 60.4131 25.9746 60.4131 27.4596C60.4131 28.9008 60.9138 30.0472 61.9153 30.8989C62.9168 31.7287 64.2666 32.1436 65.9648 32.1436C67.4017 32.1436 68.621 31.8379 69.6224 31.2264C70.4321 30.7145 71.0425 30.0313 71.4537 29.1768C71.4581 29.6553 71.4681 30.0764 71.4839 30.4403ZM71.288 26.1166V23.8116L67.0752 24.4788C65.9648 24.6535 65.1266 24.9483 64.5605 25.3632C64.0163 25.7781 63.7441 26.3786 63.7441 27.1648C63.7441 27.9291 63.9945 28.5077 64.4952 28.9008C65.0178 29.272 65.7689 29.4576 66.7486 29.4576C68.0549 29.4576 69.1326 29.141 69.9817 28.5077C70.8525 27.8745 71.288 27.0774 71.288 26.1166ZM50.6866 32.1436C48.9884 32.1436 47.497 31.7724 46.2125 31.0299C44.928 30.2656 43.9265 29.2284 43.208 27.9181C42.4896 26.5861 42.1303 25.0793 42.1303 23.3979C42.1303 21.6946 42.4896 20.1987 43.208 18.9103C43.9483 17.6219 44.9498 16.6174 46.2125 15.8968C47.497 15.1544 48.9884 14.7831 50.6866 14.7831C52.4066 14.7831 53.9088 15.1544 55.1933 15.8968C56.4778 16.6174 57.4684 17.6219 58.1652 18.9103C58.8836 20.1987 59.2429 21.6946 59.2429 23.3979C59.2429 25.0793 58.8836 26.5861 58.1652 27.9181C57.4684 29.2284 56.4778 30.2656 55.1933 31.0299C53.9088 31.7724 52.4066 32.1436 50.6866 32.1436ZM50.6866 29.3594C51.7099 29.3594 52.5916 29.1083 53.3318 28.606C54.0938 28.1038 54.6926 27.405 55.128 26.5096C55.5634 25.6143 55.7812 24.5661 55.7812 23.3651C55.7812 21.5745 55.3022 20.166 54.3442 19.1396C53.4081 18.0914 52.1888 17.5674 50.6866 17.5674C49.2061 17.5674 47.9869 18.0914 47.029 19.1396C46.0928 20.1878 45.6247 21.5963 45.6247 23.3651C45.6247 24.5661 45.8315 25.6143 46.2452 26.5096C46.6806 27.405 47.2793 28.1042 48.0414 28.606C48.8251 29.1083 49.7069 29.3594 50.6866 29.3594ZM26.9795 8.23213V31.8162H28.6777H30.4412H42.2632V28.9664H30.4412V8.23213H26.9795Z" fill="#F2F6F7"/>
</g>
<mask id="ll_m2" style="mask-type:alpha" maskUnits="userSpaceOnUse" x="24" y="18" width="74" height="16">
<path d="M97.9848 33.9838L24.8628 18.3945V33.9838H97.9848Z" fill="#E21C1C"/>
</mask>
<g mask="url(#ll_m2)">
<path fill-rule="evenodd" clip-rule="evenodd" d="M26.9795 8.23242V31.8165H28.6777H30.4412H42.2632V28.9667H30.4412V8.23242H26.9795ZM50.6866 32.1441C48.9884 32.1441 47.497 31.7728 46.2125 31.0304C44.928 30.2661 43.9265 29.2288 43.208 27.9186C42.4896 26.5865 42.1303 25.0798 42.1303 23.3983C42.1303 21.695 42.4896 20.1992 43.208 18.9108C43.9483 17.6224 44.9498 16.6179 46.2125 15.8973C47.497 15.1548 48.9884 14.7836 50.6866 14.7836C52.4066 14.7836 53.9088 15.1548 55.1933 15.8973C56.4778 16.6179 57.4684 17.6224 58.1652 18.9108C58.8836 20.1992 59.2429 21.695 59.2429 23.3983C59.2429 25.0798 58.8836 26.5865 58.1652 27.9186C57.4684 29.2288 56.4778 30.2661 55.1933 31.0304C53.9088 31.7728 52.4066 32.1441 50.6866 32.1441ZM50.6866 29.3598C51.7099 29.3598 52.5916 29.1087 53.3318 28.6065C54.0938 28.1042 54.6926 27.4054 55.128 26.5101C55.5634 25.6148 55.7812 24.5666 55.7812 23.3656C55.7812 21.5749 55.3022 20.1664 54.3442 19.1401C53.4081 18.0919 52.1888 17.5678 50.6866 17.5678C49.2061 17.5678 47.9869 18.0919 47.029 19.1401C46.0928 20.1883 45.6247 21.5968 45.6247 23.3656C45.6247 24.5666 45.8315 25.6148 46.2452 26.5101C46.6806 27.4054 47.2793 28.1042 48.0414 28.6065C48.8251 29.1087 49.7069 29.3598 50.6866 29.3598ZM71.4513 30.4613V31.8165H74.619V28.6065V20.7779C74.619 18.8125 74.0748 17.3276 72.9862 16.3231C71.8976 15.2968 70.2647 14.7836 68.0876 14.7836C65.9757 14.7836 64.2884 15.2531 63.0257 16.1921C61.7629 17.1311 61.0553 18.3867 60.9029 19.959H64.136C64.2449 19.151 64.6259 18.5287 65.279 18.0919C65.9539 17.6552 66.8466 17.4368 67.9569 17.4368C69.1108 17.4368 69.949 17.7098 70.4716 18.2557C71.0158 18.7798 71.288 19.5768 71.288 20.6469V21.423L66.5526 22.1864C64.5714 22.4921 63.0474 23.0817 61.9806 23.9552C60.9356 24.8068 60.4131 25.9751 60.4131 27.46C60.4131 28.9013 60.9138 30.0477 61.9153 30.8994C62.9168 31.7292 64.2666 32.1441 65.9648 32.1441C67.4017 32.1441 68.621 31.8384 69.6224 31.2269C70.4305 30.716 71.0401 30.0345 71.4513 29.1824V30.4613ZM71.288 26.117V23.8121L67.0752 24.4793C65.9648 24.654 65.1266 24.9488 64.5605 25.3637C64.0163 25.7786 63.7441 26.3791 63.7441 27.1652C63.7441 27.9295 63.9945 28.5082 64.4952 28.9013C65.0178 29.2725 65.7689 29.4581 66.7486 29.4581C68.0549 29.4581 69.1326 29.141 69.9817 28.5082C70.8525 27.8749 71.288 27.0779 71.288 26.117ZM77.6916 15.1111V31.8165H81.088V22.8087C81.088 21.7605 81.2948 20.8543 81.7085 20.09C82.1439 19.3257 82.7317 18.7252 83.472 18.2884C84.234 17.8517 85.1048 17.6333 86.0846 17.6333C87.2167 17.6333 88.0658 17.9172 88.6318 18.485C89.2197 19.0527 89.5136 19.9153 89.5136 21.0727V31.8165H92.8773V20.2865C92.8773 18.6269 92.3657 17.2949 91.3424 16.2904C90.3191 15.2858 88.9149 14.7836 87.1296 14.7836C85.6273 14.7836 84.3102 15.1439 83.178 15.8645C82.2136 16.4784 81.4625 17.2824 80.9247 18.2766V15.1111H77.6916Z" fill="#596B77"/>
</g>
<defs>
<linearGradient id="ll_g0" x1="12.9844" y1="12.836" x2="28.151" y2="14.8969" gradientUnits="userSpaceOnUse">
<stop stop-color="#4A6C7F"/>
<stop offset="1" stop-color="#AEC4CF" stop-opacity="0"/>
</linearGradient>
<linearGradient id="ll_g1" x1="24.8628" y1="12.6496" x2="166.277" y2="28.6925" gradientUnits="userSpaceOnUse">
<stop offset="0.459981"/>
<stop offset="1" stop-color="#666666" stop-opacity="0.4"/>
</linearGradient>
</defs>
</svg>
